<?xml version="1.0" encoding="utf-8"?>
<!-- Generator: Adobe Illustrator 19.0.0, SVG Export Plug-In . SVG Version: 6.00 Build 0)  -->
<svg version="1.1" id="Layer_1" xmlns="http://www.w3.org/2000/svg" xmlns:xlink="http://www.w3.org/1999/xlink" x="0px" y="0px"
	 viewBox="0 0 500 500" style="enable-background:new 0 0 500 500;" xml:space="preserve">
<style type="text/css">
	.st0{fill:#1B1B1B;}
</style>
<g id="_x23_1b1b1bff">
	<path id="XMLID_13_" class="st0" d="M355.4,188.7c2.6,4.1,4.8,8.4,7.2,12.5c5.1,8.9,10.1,17.9,15.2,26.8c-14.9,0-29.8,0-44.7,0
		C340.5,214.9,348,201.8,355.4,188.7z"/>
	<path class="st0" d="M75,311.3c4.8-28.4,9.4-56.8,14.2-85.1c9.1,0,18.3,0,27.4,0c7.7,0,15.6-0.4,23.1,1.6c6.2,1.5,12.2,4.7,16,9.9
		c4.3,5.8,5.6,13.1,5.5,20.2c-0.1,9.6-2.7,19.1-6.7,27.8c-3,6.3-7.2,12-12.7,16.3c-6.5,5.1-14.5,7.9-22.6,8.8
		c-4.8,0.6-9.7,0.4-14.5,0.5C94.8,311.3,84.9,311.3,75,311.3 M111.9,246.1c-2.5,15.1-5,30.3-7.6,45.4c4.7-0.1,9.6,0.4,14.2-1.1
		c5.1-1.5,9.3-5.3,11.7-9.9c3.3-6.3,4.5-13.6,4.6-20.7c-0.1-3.9-0.7-8.6-4.4-10.9C124.9,245.4,118.1,246.2,111.9,246.1z"/>
	<path id="XMLID_10_" class="st0" d="M173.9,226.2c8.7,0,17.4,0,26.1,0c-3.6,21.8-7.3,43.5-10.9,65.3c11.9,0,23.9,0,35.8,0
		c-1.1,6.6-2.2,13.3-3.3,19.9c-20.6,0-41.2,0-61.8,0C164.4,282.9,169.1,254.6,173.9,226.2z"/>
	<path id="XMLID_9_" class="st0" d="M242.9,226.2c20.6,0,41.3,0,61.9,0c-1.1,6.6-2.2,13.2-3.3,19.8c-11.9,0.1-23.9,0-35.8,0
		c-0.8,5.2-1.7,10.3-2.6,15.5c9.5,0,19,0,28.5,0c-1,6.6-2.2,13.2-3.3,19.9c-9.5,0-19,0-28.5,0c-1.7,10-3.3,19.9-5,29.9
		c-8.7,0-17.4,0-26.1,0C233.5,282.9,238.2,254.6,242.9,226.2z"/>
	<path id="XMLID_8_" class="st0" d="M334.8,231.1c13.7,0,27.5,0,41.2,0c-6.9,12.1-13.8,24.2-20.6,36.4
		C348.6,255.3,341.7,243.2,334.8,231.1z"/>
	<path id="XMLID_7_" class="st0" d="M310,268.9c7.2-12.6,14.3-25.2,21.5-37.8c7.2,12.6,14.3,25.2,21.5,37.9
		C338.6,268.9,324.3,268.9,310,268.9z"/>
	<path id="XMLID_6_" class="st0" d="M357.9,268.9c7.2-12.6,14.3-25.2,21.5-37.8c7.2,12.6,14.3,25.2,21.5,37.9
		C386.5,268.9,372.2,268.9,357.9,268.9z"/>
	<path id="XMLID_5_" class="st0" d="M308.3,271.9c7.5,13.1,14.9,26.3,22.4,39.4c-14.9,0-29.8,0-44.7,0
		C293.4,298.1,300.8,285,308.3,271.9z"/>
	<path id="XMLID_4_" class="st0" d="M311.7,271.9c13.7,0,27.5,0,41.2,0c-6.7,11.9-13.5,23.8-20.3,35.8c-0.2,0.8-0.8,0-0.9-0.3
		C325.1,295.5,318.4,283.7,311.7,271.9z"/>
	<path id="XMLID_3_" class="st0" d="M357.9,271.9c13.7,0,27.5,0,41.2,0c-6.9,12.1-13.7,24.3-20.6,36.4
		C371.7,296.1,364.8,284,357.9,271.9z"/>
	<path id="XMLID_2_" class="st0" d="M402.5,271.9c3.7,6,7,12.3,10.6,18.4c4,7,7.9,14,11.9,21c-14.9,0-29.8,0-44.7,0
		C387.6,298.2,395.1,285.1,402.5,271.9z"/>
	<path id="XMLID_14_" class="st0" d="M355.5,273.4c7.3,12.6,14.3,25.3,21.5,37.9c-14.3,0-28.6,0-42.9,0
		C341.2,298.7,348.4,286.1,355.5,273.4z"/>
</g>
</svg>
